<?xml version="1.0" encoding="UTF-8"?>
<svg id="Ebene_1" data-name="Ebene 1" xmlns="http://www.w3.org/2000/svg" viewBox="0 0 2000 2000">
  <defs>
    <style>
      .cls-1 {
        fill: #172d4d;
      }

      .cls-2 {
        fill: none;
      }

      .cls-3 {
        fill: #cfd8e5;
        fill-rule: evenodd;
        stroke: #172d4d;
        stroke-linecap: round;
        stroke-linejoin: round;
        stroke-width: 58.52px;
      }
    </style>
  </defs>
  <rect id="feedback-icon" class="cls-2" width="2000" height="2000"/>
  <g id="feedback-icon1">
    <path class="cls-3" d="m1422.51,1639.32c-128.17,52.85-272.67,82.57-425.53,82.57-526.52,0-953.99-352.7-953.99-787.12S470.47,147.65,996.99,147.65s953.99,352.7,953.99,787.12c0,176.59-70.63,339.67-189.85,471.07,115.66,279.32,202.88,439.56,202.88,439.56,0,0-339.58-3.32-541.49-206.08Z"/>
    <g>
      <path class="cls-1" d="m557.61,960.85h-207.28v212.4h-128.54v-533.2h356.69v99.24h-228.15v122.68h207.28v98.88Z"/>
      <path class="cls-1" d="m625.36,674.47c0-17.68,6.35-32.17,19.04-43.48,12.69-11.3,29.17-16.95,49.44-16.95s36.74,5.65,49.44,16.95c12.69,11.3,19.04,25.79,19.04,43.48s-6.35,32.18-19.04,43.48c-12.7,11.3-29.18,16.95-49.44,16.95s-36.75-5.65-49.44-16.95c-12.7-11.3-19.04-25.79-19.04-43.48Zm131.1,498.78h-123.78v-396.24h123.78v396.24Z"/>
      <path class="cls-1" d="m945.79,777.01l4.03,46.51c27.34-35.89,65.06-53.83,113.16-53.83,41.26,0,72.08,12.33,92.47,36.99,20.38,24.66,30.94,61.77,31.68,111.33v255.25h-123.78v-250.12c0-20.02-4.03-34.73-12.08-44.13-8.06-9.4-22.71-14.1-43.95-14.1-24.17,0-42.11,9.52-53.83,28.56v279.78h-123.41v-396.24h115.72Z"/>
      <path class="cls-1" d="m1478.63,1173.25c-4.39-8.06-8.3-19.9-11.72-35.52-22.71,28.56-54.45,42.85-95.21,42.85-37.35,0-69.09-11.29-95.21-33.88-26.13-22.58-39.18-50.96-39.18-85.14,0-42.97,15.87-75.44,47.61-97.41,31.73-21.97,77.88-32.96,138.43-32.96h38.09v-20.98c0-36.55-15.75-54.83-47.24-54.83-29.3,0-43.95,14.48-43.95,43.42h-123.41c0-38.28,16.3-69.37,48.89-93.27,32.59-23.9,74.16-35.85,124.69-35.85s90.45,12.33,119.75,36.99c29.3,24.66,44.31,58.47,45.04,101.44v175.41c.49,36.38,6.1,64.21,16.85,83.5v6.23h-123.41Zm-77.27-80.57c15.38,0,28.14-3.3,38.27-9.89,10.13-6.59,17.4-14.04,21.79-22.34v-63.35h-35.89c-42.97,0-64.45,19.29-64.45,57.86,0,11.23,3.78,20.33,11.35,27.28,7.56,6.96,17.21,10.44,28.93,10.44Z"/>
      <path class="cls-1" d="m1783.68,1173.25h-123.78v-562.5h123.78v562.5Z"/>
    </g>
  </g>
</svg>