<?xml version="1.0" encoding="UTF-8"?>
<svg id="ConditionRight" xmlns="http://www.w3.org/2000/svg" viewBox="0 0 2000 2000">
  <defs>
    <style>
      .cls-1 {
        fill: #b9bec6;
      }

      .cls-1, .cls-2, .cls-3, .cls-4, .cls-5, .cls-6, .cls-7, .cls-8, .cls-9, .cls-10, .cls-11 {
        fill-rule: evenodd;
      }

      .cls-2 {
        fill: #e3e5e8;
      }

      .cls-12 {
        stroke: #d70000;
      }

      .cls-12, .cls-13, .cls-8, .cls-14 {
        stroke-miterlimit: 10;
      }

      .cls-12, .cls-13, .cls-14 {
        fill: none;
        stroke-linecap: round;
      }

      .cls-12, .cls-14 {
        stroke-width: 89px;
      }

      .cls-3, .cls-15 {
        fill: #45a0e5;
      }

      .cls-4 {
        fill: #59ace8;
      }

      .cls-13 {
        stroke: #fff;
        stroke-width: 124px;
      }

      .cls-5 {
        fill: #b8ddf5;
      }

      .cls-6 {
        fill: #172d4f;
      }

      .cls-7, .cls-8, .cls-16 {
        fill: #172d4d;
      }

      .cls-8 {
        stroke-width: 25px;
      }

      .cls-8, .cls-11 {
        stroke: #172d4d;
      }

      .cls-9 {
        fill: #8f97a3;
      }

      .cls-14 {
        stroke: #31bd2c;
      }

      .cls-10 {
        fill: #92caf0;
      }

      .cls-11 {
        fill: #d0d8e5;
        stroke-linejoin: round;
        stroke-width: 43px;
      }
    </style>
  </defs>
  <g>
    <polygon class="cls-1" points="32.09 1722.92 471.72 1469.1 911.35 1722.92 471.72 1976.74 32.09 1722.92"/>
    <polygon class="cls-2" points="471.72 1056.64 911.34 1310.46 911.34 1722.92 471.72 1469.1 471.72 1056.64"/>
    <g>
      <polygon class="cls-9" points="32.09 1310.46 471.71 1056.65 471.71 1469.1 32.09 1722.92 32.09 1310.46"/>
      <path class="cls-8" d="m916.61,1728.82c.33-.29.63-.61.9-.95,1.11-1.38,1.75-3.12,1.75-4.94,0-.05,0-.1,0-.16v-412.3c0-2.82-1.51-5.43-3.95-6.85l-439.63-253.82c-2.44-1.41-5.46-1.41-7.9,0,0,0-.01,0-.02,0L28.13,1303.62c-2.44,1.41-3.95,4.02-3.95,6.85v412.45c0,2.83,1.51,5.44,3.95,6.85.03.02.06.03.08.04l439.55,253.77c2.44,1.41,5.46,1.41,7.9,0l439.63-253.82c.43-.25.82-.53,1.19-.85.03-.02.05-.04.08-.07.01-.01.02-.02.04-.03Zm-436.99-658.48l423.82,244.69v394.2s-380.74-219.82-423.82-244.69v-394.2Zm-439.63,244.69l423.82-244.69v394.2l-423.82,244.69v-394.2Zm431.73,652.58l-423.82-244.69,423.82-244.69,423.82,244.69-423.82,244.69Z"/>
    </g>
    <g id="Avatar">
      <path class="cls-3" d="m328.04,1443.67c50.48-29.14,91.46,11.63,91.46,90.99s14.22,135.58-91.46,196.6c-99.81,57.62-91.46-11.62-91.46-90.99s40.98-167.45,91.46-196.6Z"/>
      <path class="cls-7" d="m365.09,1426.53c-12.61-1.31-26.49,1.83-41.04,10.24-38.86,22.44-72.65,78.42-87.46,139.45-12.7,38.76-15.61,77.23-8.28,127.42.5,3.4,3.31,35.59,15.28,50.85,53.39,41.18,75.57,32.2,82.98,30.79,12.87-2.43,29.36-9.09,50.35-21.21,44.07-25.45,67.96-50.29,80.98-76,19.28-38.08,14.47-78.47,14.47-127.5,0-40.31-10.48-71.11-26.83-89.3-2.29-3.54-5.61-7.2-10.21-10.62-53.48-39.74-56.54-35.25-56.54-35.25-3.52-2.03-7.85-2-11.34.07l-2.34,1.06Zm50.78,43.39c7.33,17.17,11.6,39.02,11.6,64.73,0,49.02,4.81,89.42-14.47,127.5-13.02,25.71-36.9,50.56-80.98,76.01-14.3,8.26-26.51,13.99-36.92,17.56,1.76,4.57,4.13,8.3,7.45,10.92,4.88,3.85,11.71,4.75,21.06,2.98,11.61-2.19,26.39-8.42,45.33-19.35,40.47-23.37,62.77-45.79,74.72-69.4,18.18-35.9,12.75-74.08,12.75-120.29,0-26.28-4.61-48.11-12.84-64.17-6.92-13.52-16.33-22.79-27.71-26.48Zm-18.13-1.24c.32.59.64,1.2.95,1.81,8.22,16.06,12.84,37.89,12.84,64.17,0,46.21,5.43,84.39-12.75,120.29-11.96,23.61-34.25,46.04-74.72,69.4-12.65,7.31-23.45,12.51-32.69,15.82-3.01-20.04-1.92-46.39-1.92-73.98,0-76.46,38.85-161.62,87.48-189.7h0c7.22-4.17,14.19-6.76,20.82-7.81Z"/>
      <path class="cls-7" d="m274.82,1401.86c2.25,8.07,7.9,22.56,16.97,29.54,42.38,32.66,49.35,31.78,59.04,33.06,14.39,1.9,30.32,1.06,45.7-12.73,26.35-23.65,39.9-71.37,30.09-106.52-4.36-15.63-12.49-26.47-22.26-32.57-.42-.26-41.63-26.72-53.75-30.03-14-3.83-30.32-1.06-45.7,12.73h0c-26.35,23.65-39.9,71.37-30.09,106.52Zm109.01-72.71c5.14,33.76-8.24,75.15-32.2,96.66-2.21,1.98-4.44,3.75-6.69,5.31,3.18,6.11,7.46,10.28,12.69,11.94,7.35,2.34,15.72-.71,23.89-8.05,20.71-18.59,31.17-56.15,23.46-83.78-3.14-11.24-8.71-18.9-16.3-21.31-1.58-.5-3.2-.76-4.86-.77Zm-21.34,11.01c1.38,23.89-7.77,50.92-23.55,66.75-1.38-23.89,7.77-50.92,23.55-66.75Z"/>
      <path class="cls-3" d="m372.93,1469.58c50.48-29.14,91.46,11.63,91.46,90.99s14.22,135.58-91.46,196.6c-99.81,57.62-91.46-11.62-91.46-90.99s40.98-167.45,91.46-196.6Z"/>
      <path class="cls-4" d="m385.49,1492.29c43.59-25.17,78.99,10.04,78.99,78.58s12.28,117.09-78.99,169.78c-86.2,49.77-78.99-10.04-78.99-78.58s35.39-144.62,78.99-169.79Z"/>
      <path class="cls-10" d="m397.97,1537.68c26.97-15.57,48.87,6.21,48.87,48.62s7.6,72.44-48.87,105.04c-53.33,30.79-48.87-6.21-48.87-48.61s21.9-89.47,48.87-105.04Z"/>
      <path class="cls-5" d="m401.68,1576.68c16.22-9.37,29.39,3.74,29.39,29.24s4.57,43.57-29.39,63.18c-32.08,18.52-29.39-3.73-29.39-29.24s13.17-53.81,29.39-63.18Z"/>
      <ellipse class="cls-15" cx="372.23" cy="1387.32" rx="69.23" ry="42.85" transform="translate(-1063.48 1431.65) rotate(-76.75)"/>
    </g>
    <g id="Fernseher_rechts" data-name="Fernseher rechts">
      <g>
        <polygon class="cls-9" points="556.86 1208.02 822.32 1361.28 822.32 1595.07 556.86 1441.81 556.86 1208.02"/>
        <path class="cls-16" d="m822.32,1602.25c-1.24,0-2.48-.32-3.59-.96l-265.47-153.27c-2.22-1.28-3.59-3.65-3.59-6.21v-233.79c0-2.56,1.37-4.93,3.59-6.21,2.22-1.28,4.96-1.28,7.17,0l265.47,153.27c2.22,1.28,3.59,3.65,3.59,6.21v233.79c0,2.56-1.37,4.93-3.59,6.21-1.11.64-2.35.96-3.59.96Zm-258.29-164.58l251.12,144.98v-217.22l-251.12-144.98v217.22Z"/>
      </g>
      <g id="Videobutton">
        <ellipse class="cls-15" cx="689.59" cy="1399.59" rx="55.43" ry="96" transform="translate(-607.41 532.3) rotate(-30)"/>
        <path class="cls-6" d="m731.72,1425.41l-67.34,7.72v-93.2l67.34,85.48Z"/>
      </g>
    </g>
  </g>
  <g>
    <polygon class="cls-1" points="1089.55 1721.57 1529.18 1467.75 1968.8 1721.57 1529.18 1975.39 1089.55 1721.57"/>
    <polygon class="cls-2" points="1529.17 1055.29 1968.8 1309.11 1968.8 1721.56 1529.17 1467.75 1529.17 1055.29"/>
    <g>
      <polygon class="cls-9" points="1089.54 1309.11 1529.17 1055.29 1529.17 1467.75 1089.54 1721.57 1089.54 1309.11"/>
      <path class="cls-8" d="m1974.06,1727.46c.33-.29.63-.61.9-.95,1.11-1.38,1.75-3.12,1.75-4.94,0-.05,0-.1,0-.16v-412.3c0-2.82-1.51-5.43-3.95-6.85l-439.63-253.82c-2.44-1.41-5.46-1.41-7.9,0,0,0-.01,0-.02,0l-439.61,253.81c-2.44,1.41-3.95,4.02-3.95,6.85v412.45c0,2.83,1.51,5.44,3.95,6.85.03.02.06.03.08.04l439.55,253.77c2.44,1.41,5.46,1.41,7.9,0l439.63-253.82c.43-.25.82-.53,1.19-.85.03-.02.05-.04.08-.07.01-.01.02-.02.04-.03Zm-436.99-658.48l423.82,244.69v394.2s-380.74-219.82-423.82-244.69v-394.2Zm-439.63,244.69l423.82-244.69v394.2l-423.82,244.69v-394.2Zm431.73,652.58l-423.82-244.69,423.82-244.69,423.82,244.69-423.82,244.69Z"/>
    </g>
    <g id="Avatar-2" data-name="Avatar">
      <path class="cls-3" d="m1385.5,1442.31c50.48-29.14,91.46,11.63,91.46,90.99s14.22,135.58-91.46,196.6c-99.81,57.62-91.46-11.62-91.46-90.99s40.98-167.45,91.46-196.6Z"/>
      <path class="cls-7" d="m1422.55,1425.18c-12.61-1.31-26.49,1.83-41.04,10.24-38.86,22.44-72.65,78.42-87.46,139.45-12.7,38.76-15.61,77.23-8.28,127.42.5,3.4,3.31,35.59,15.28,50.85,53.39,41.18,75.57,32.2,82.98,30.79,12.87-2.43,29.36-9.09,50.35-21.21,44.07-25.45,67.96-50.29,80.98-76,19.28-38.08,14.47-78.47,14.47-127.5,0-40.31-10.48-71.11-26.83-89.3-2.29-3.54-5.61-7.2-10.21-10.62-53.48-39.74-56.54-35.25-56.54-35.25-3.52-2.03-7.85-2-11.34.07l-2.34,1.06Zm50.78,43.39c7.33,17.17,11.6,39.02,11.6,64.73,0,49.02,4.81,89.42-14.47,127.5-13.02,25.71-36.9,50.56-80.98,76.01-14.3,8.26-26.51,13.99-36.92,17.56,1.76,4.57,4.13,8.3,7.45,10.92,4.88,3.85,11.71,4.75,21.06,2.98,11.61-2.19,26.39-8.42,45.33-19.35,40.47-23.37,62.77-45.79,74.72-69.4,18.18-35.9,12.75-74.08,12.75-120.29,0-26.28-4.61-48.11-12.84-64.17-6.92-13.52-16.33-22.79-27.71-26.48Zm-18.13-1.24c.32.59.64,1.2.95,1.81,8.22,16.06,12.84,37.89,12.84,64.17,0,46.21,5.43,84.39-12.75,120.29-11.96,23.61-34.25,46.04-74.72,69.4-12.65,7.31-23.45,12.51-32.69,15.82-3.01-20.04-1.92-46.39-1.92-73.98,0-76.46,38.85-161.62,87.48-189.7h0c7.22-4.17,14.19-6.76,20.82-7.81Z"/>
      <path class="cls-7" d="m1332.28,1400.51c2.25,8.07,7.9,22.56,16.97,29.54,42.38,32.66,49.35,31.78,59.04,33.06,14.39,1.9,30.32,1.06,45.7-12.73,26.35-23.65,39.9-71.37,30.09-106.52-4.36-15.63-12.49-26.47-22.26-32.57-.42-.26-41.63-26.72-53.75-30.03-14-3.83-30.32-1.06-45.7,12.73h0c-26.35,23.65-39.9,71.37-30.09,106.52Zm109.01-72.71c5.14,33.76-8.24,75.15-32.2,96.66-2.21,1.98-4.44,3.75-6.69,5.31,3.18,6.11,7.46,10.28,12.69,11.94,7.35,2.34,15.72-.71,23.89-8.05,20.71-18.59,31.17-56.15,23.46-83.78-3.14-11.24-8.71-18.9-16.3-21.31-1.58-.5-3.2-.76-4.86-.77Zm-21.34,11.01c1.38,23.89-7.77,50.92-23.55,66.75-1.38-23.89,7.77-50.92,23.55-66.75Z"/>
      <path class="cls-3" d="m1430.39,1468.23c50.48-29.14,91.46,11.63,91.46,90.99s14.22,135.58-91.46,196.6c-99.81,57.62-91.46-11.62-91.46-90.99s40.98-167.45,91.46-196.6Z"/>
      <path class="cls-4" d="m1442.95,1490.93c43.59-25.17,78.99,10.04,78.99,78.58s12.28,117.09-78.99,169.78c-86.2,49.77-78.99-10.04-78.99-78.58s35.39-144.62,78.99-169.79Z"/>
      <path class="cls-10" d="m1455.43,1536.33c26.97-15.57,48.87,6.21,48.87,48.62s7.6,72.44-48.87,105.04c-53.33,30.79-48.87-6.21-48.87-48.61s21.9-89.47,48.87-105.04Z"/>
      <path class="cls-5" d="m1459.14,1575.33c16.22-9.37,29.39,3.74,29.39,29.24s4.57,43.57-29.39,63.18c-32.08,18.52-29.39-3.73-29.39-29.24s13.17-53.81,29.39-63.18Z"/>
      <ellipse class="cls-15" cx="1429.69" cy="1385.97" rx="69.23" ry="42.85" transform="translate(-247.09 2459.91) rotate(-76.75)"/>
    </g>
    <g id="Fernseher_rechts-2" data-name="Fernseher rechts">
      <g>
        <polygon class="cls-9" points="1614.32 1206.66 1879.78 1359.93 1879.78 1593.72 1614.32 1440.46 1614.32 1206.66"/>
        <path class="cls-16" d="m1879.78,1600.9c-1.24,0-2.48-.32-3.59-.96l-265.47-153.27c-2.22-1.28-3.59-3.65-3.59-6.21v-233.79c0-2.56,1.37-4.93,3.59-6.21,2.22-1.28,4.96-1.28,7.17,0l265.47,153.27c2.22,1.28,3.59,3.65,3.59,6.21v233.79c0,2.56-1.37,4.93-3.59,6.21-1.11.64-2.35.96-3.59.96Zm-258.29-164.58l251.12,144.98v-217.22l-251.12-144.98v217.22Z"/>
      </g>
      <g id="Videobutton-2" data-name="Videobutton">
        <ellipse class="cls-15" cx="1747.05" cy="1398.24" rx="55.43" ry="96" transform="translate(-465.06 1060.85) rotate(-30)"/>
        <path class="cls-6" d="m1789.18,1424.06l-67.34,7.72v-93.2l67.34,85.48Z"/>
      </g>
    </g>
  </g>
  <line class="cls-13" x1="1219.86" y1="222.77" x2="1713" y2="608.51"/>
  <line class="cls-13" x1="1713.77" y1="219.64" x2="1220.64" y2="605.37"/>
  <line class="cls-12" x1="1220.97" y1="223" x2="1714.1" y2="608.74"/>
  <line class="cls-12" x1="1714.88" y1="219.86" x2="1221.74" y2="605.6"/>
  <polyline class="cls-13" points="289.76 384.6 495.62 590.46 865.91 220.17"/>
  <polyline class="cls-14" points="289.71 385.24 495.57 591.1 865.86 220.81"/>
  <polygon class="cls-11" points="966.4 33.98 1081.58 33.98 1081.58 720.27 1582.79 720.27 1582.79 983.76 1467.61 983.76 1467.61 836.7 533.67 836.7 533.67 996.02 421.6 996.02 421.6 720.27 966.4 720.27 966.4 33.98"/>
</svg>