<?xml version="1.0" encoding="UTF-8"?>
<svg xmlns="http://www.w3.org/2000/svg" xmlns:xlink="http://www.w3.org/1999/xlink" viewBox="0 0 2000 2000">
  <defs>
    <clipPath id="uuid-f6c20be6-f973-415f-81e3-f8a2c669ea27">
      <path d="M75.57,1016.55h888.15c21.32,0,38.61,16.61,38.61,37.11v853.68c0,20.5-17.29,37.11-38.61,37.11H75.57c-21.32,0-38.61-16.61-38.61-37.11v-853.68c0-20.5,17.29-37.11,38.61-37.11Z" style="fill: #e9f2fa; stroke: #e9f2fa; stroke-miterlimit: 6.51;"/>
    </clipPath>
    <clipPath id="uuid-3ab166e4-3c56-4c2a-a703-e0ec6d0a58e8">
      <rect x="36.96" y="1016.55" width="965.37" height="927.9" style="fill: none;"/>
    </clipPath>
  </defs>
  <g id="uuid-3b4676da-2c0f-42f8-9ebc-2f1a1f960967" data-name="R-Elements">
    <g id="uuid-a26e27ab-4c2b-4252-8288-04be6d28cf2b" data-name="videoIcon">
      <g id="uuid-4c360535-d0be-4b50-aa4f-b699e9cb1d20" data-name="screen_button-icon">
        <rect x="982.77" y="3.67" width="990.91" height="990.91" style="fill: none;"/>
        <g id="uuid-0bcbe153-dc40-4db2-80b3-a3b4ee2e57e2" data-name="Fernseher-2">
          <path d="M1614.89,878.11c0-.81-.64-1.47-1.45-1.47h-270.39c-.81,0-1.47.66-1.47,1.47v70.19c0,.81.66,1.47,1.47,1.47h270.37c.81,0,1.45-.66,1.45-1.47v-70.19h.02Z" style="fill: #172d4f; fill-rule: evenodd;"/>
          <path d="M1872.75,937.63c0-2.03-1.63-3.66-3.62-3.66h-781.78c-2.03,0-3.66,1.65-3.66,3.66v17.07c0,2.03,1.63,3.66,3.66,3.66h781.78c1.99,0,3.62-1.65,3.62-3.66v-17.07Z" style="fill: #172d4f; fill-rule: evenodd;"/>
          <path d="M1964.62,96.91c0-29.18-23.69-52.87-52.87-52.87h-867.03c-29.18,0-52.87,23.69-52.87,52.87v775.16c0,29.18,23.69,52.87,52.87,52.87h867.03c29.18,0,52.87-23.69,52.87-52.87V96.91h0Z" style="fill: #172d4f; fill-rule: evenodd;"/>
          <path d="M1923.53,110.88c0-13.16-10.68-23.84-23.84-23.84h-842.91c-13.16,0-23.84,10.69-23.84,23.84v747.22c0,13.16,10.69,23.84,23.84,23.84h842.91c13.16,0,23.84-10.69,23.84-23.84V110.88h0Z" style="fill: #e9f2fa; fill-rule: evenodd;"/>
          <g id="uuid-131c5b72-65a7-482b-9907-7f3c6e22ac87" data-name="Videobutton-2">
            <circle cx="1478.23" cy="474.5" r="229.82" style="fill: #2e3a4d;"/>
            <path d="M1620.9,478.87l-227.99,136.63v-273.27l227.99,136.63Z" style="fill: #e9f2fa; fill-rule: evenodd;"/>
          </g>
        </g>
      </g>
    </g>
    <g>
      <path d="M1002.34,1053.68c0-20.49-17.31-37.11-38.61-37.11H75.57c-21.32,0-38.61,16.64-38.61,37.11v853.66c0,20.49,17.31,37.11,38.61,37.11h888.14c21.32,0,38.61-16.64,38.61-37.11v-853.66h.02Z" style="fill: none;"/>
      <g>
        <path d="M75.57,1016.55h888.15c21.32,0,38.61,16.61,38.61,37.11v853.68c0,20.5-17.29,37.11-38.61,37.11H75.57c-21.32,0-38.61-16.61-38.61-37.11v-853.68c0-20.5,17.29-37.11,38.61-37.11Z" style="fill: #e9f2fa;"/>
        <g style="clip-path: url(#uuid-f6c20be6-f973-415f-81e3-f8a2c669ea27);">
          <g id="uuid-273d7900-d0b5-4e65-a77b-4a3856602941" data-name="bild-icon">
            <rect x="36.96" y="1016.55" width="965.37" height="927.9" style="fill: none;"/>
            <g style="clip-path: url(#uuid-3ab166e4-3c56-4c2a-a703-e0ec6d0a58e8);">
              <g>
                <g id="uuid-6883a2fd-c5ba-4744-a15f-80c45b9ab9c8" data-name="Berge">
                  <g>
                    <path d="M189.7,1368.63c116.24-26.16,734.1,475.28,734.1,475.28l-380.35,100.54-328.49-182.8s-130.24-369.4-25.27-393.02h0Z" style="fill: #172c4f; fill-rule: evenodd;"/>
                    <path d="M596.65,1488.86c130.62-17.42,845.82,377.4,845.82,377.4l-422.61,78.2-364.98-142.19s-182.31-296.88-58.23-313.42Z" style="fill: #172c4f; fill-rule: evenodd;"/>
                    <path d="M596.65,1488.86c102.45,0,423.2,455.61,423.2,455.61H405.15s89.05-455.61,191.5-455.61Z" style="fill: #2e3a4d; fill-rule: evenodd;"/>
                    <path d="M192.09,1368.63c92.2,0,351.36,575.82,351.36,575.82H-9.78s109.67-575.82,201.89-575.82h-.02Z" style="fill: #2e3a4d; fill-rule: evenodd;"/>
                  </g>
                </g>
                <g id="uuid-66d6b9e7-6823-423b-977c-dde28982c9be" data-name="Sonne">
                  <ellipse cx="168.52" cy="1135.93" rx="89.76" ry="86.27" style="fill: #2e3a4d;"/>
                  <path d="M157.02,1241.33v91.16c0,2.62,5.15,4.75,11.5,4.75s11.5-2.13,11.5-4.75v-91.16c0-2.62-5.15-4.75-11.5-4.75s-11.5,2.13-11.5,4.75Z" style="fill: #2e3a4d; fill-rule: evenodd;"/>
                  <path d="M256.58,1236.21l67.17,64.57c1.93,1.85,7.15-.13,11.64-4.45,4.49-4.32,6.57-9.32,4.63-11.19l-67.17-64.57c-1.93-1.85-7.15.13-11.64,4.45-4.49,4.32-6.57,9.32-4.63,11.19Z" style="fill: #2e3a4d; fill-rule: evenodd;"/>
                  <path d="M293.14,1146.99h94.8c2.72,0,4.94-4.95,4.94-11.05s-2.22-11.05-4.94-11.05h-94.8c-2.72,0-4.94,4.95-4.94,11.05s2.22,11.05,4.94,11.05Z" style="fill: #2e3a4d; fill-rule: evenodd;"/>
                </g>
              </g>
            </g>
          </g>
        </g>
        <path d="M75.57,1016.55h888.15c21.32,0,38.61,16.61,38.61,37.11v853.68c0,20.5-17.29,37.11-38.61,37.11H75.57c-21.32,0-38.61-16.61-38.61-37.11v-853.68c0-20.5,17.29-37.11,38.61-37.11Z" style="fill: none; stroke: #e9f2fa; stroke-miterlimit: 6.51;"/>
      </g>
    </g>
    <g id="uuid-51402b77-b447-4d62-8f2f-ef0033f495c1" data-name="h5pIcon">
      <g>
        <path d="M1517.38,497.15c0-22.17-18.34-40.15-40.91-40.15h-941.39c-22.59,0-40.91,17.98-40.91,40.15v923.52c0,22.17,18.32,40.15,40.91,40.15h941.38c22.57,0,40.91-18,40.91-40.15V497.15h0Z" style="fill: #363f4d; fill-rule: evenodd;"/>
        <g id="uuid-84cdb9cf-3218-4a19-857c-3950dfbec326" data-name="H5P">
          <path d="M531.41,959.65v-203.9h128.82v175.36h139.2v-175.36h103.96l-1.12,4.58c-2.16,8.91-40.2,174.12-44.83,194.72-2.58,11.5-4.19,21.4-3.57,22.01.62.61,26.05,4.47,56.53,8.61l55.41,7.49,8.46-9.7c23.85-27.4,64.4-27.86,87.81-1.01,30.7,35.18,4.05,90.11-43.62,89.92-16.91-.07-30.44-6.18-43.16-19.47l-10.07-10.51-55.34,7.71c-30.44,4.24-55.8,8.16-56.38,8.71-2.16,2.12,8.97,28.94,17.9,43.12,16.44,26.05,36.25,42.61,65.2,54.52,7.38,3.02,13.78,5.87,14.26,6.31.48.43-33.41.81-75.31.81h-76.19v-150.89h-139.2v150.89h-128.82v-203.89l.05-.02Z" style="fill: #e9f2fa; stroke: #e9f2fa; stroke-miterlimit: 6.51; stroke-width: 3.96px;"/>
          <path d="M1101.79,1161.77c1.08-.99,6.75-3.31,12.58-5.16,49.72-15.83,88.01-76.24,88.07-138.92.02-36.2-11.09-64.35-35.31-89.36-16.44-17-33.92-27.81-57.13-35.34-15.25-4.96-19.53-5.41-51.95-5.55-33.11-.14-36.45.2-53.53,5.53-10.01,3.13-19.61,6.22-21.33,6.84-2.01.75-2.8.2-2.2-1.6.51-1.53,3.86-15.4,7.47-30.81l6.55-28.04h188.71v-84.09l97.13,1.02c90.54.95,98.26,1.31,113.75,5.35,43.07,11.23,68.46,33.86,81.44,72.63,4.8,14.32,5.47,19.8,5.64,44.86.13,21.31-.77,31.91-3.5,41.8-11.88,43.08-43.55,73.28-88.78,84.71-16.62,4.2-56,6.86-103.37,6.97l-35.84.09v150.87h-75.22c-43.22,0-74.38-.75-73.22-1.78h0l.04-.04ZM1325.19,925.78c14.48-4.22,27.5-16.53,30.99-29.34,6.61-24.06-7.07-48.4-30.92-55.05-4.14-1.15-22.72-2.68-41.28-3.4l-33.76-1.29v95.07l31.87-1.35c19.26-.81,36.3-2.64,43.09-4.62h0v-.04Z" style="fill: #e9f2fa; stroke: #e9f2fa; stroke-miterlimit: 6.51; stroke-width: 3.96px;"/>
        </g>
      </g>
    </g>
  </g>
  <g id="uuid-c7f961c4-e5f2-4473-86e5-b56903dca723" data-name="R-Schrift">
    <path d="M1307.05,1760.37h651.59v198.89h-901V539.26h249.41v1221.11Z" style="fill: #172d4d;"/>
    <path d="M1421.98,1609.99h538.02l-.29,269.09h-823.7V538.56h285.97v1071.43Z" style="fill: #e5bd73;"/>
  </g>
</svg>