<?xml version="1.0" encoding="UTF-8"?>
<svg id="Ebene_1" data-name="Ebene 1" xmlns="http://www.w3.org/2000/svg" viewBox="0 0 2000 2000">
  <defs>
    <style>
      .cls-1 {
        fill: #cfd8e5;
        stroke: #172d4d;
        stroke-miterlimit: 10;
        stroke-width: 20px;
      }

      .cls-2 {
        fill-rule: evenodd;
      }

      .cls-2, .cls-3 {
        fill: #172d4d;
      }
    </style>
  </defs>
  <g>
    <rect class="cls-1" x="59.02" y="79.9" width="843.19" height="541.48" rx="86.95" ry="86.95"/>
    <path class="cls-2" d="m589.38,318h-80.38v-80.38c0-8.63-6.99-15.62-15.62-15.62h-26.76c-8.63,0-15.62,6.99-15.62,15.62v80.38h-80.38c-8.63,0-15.62,6.99-15.62,15.62v26.76c0,8.63,6.99,15.62,15.62,15.62h80.38v80.38c0,8.63,6.99,15.62,15.62,15.62h26.76c8.63,0,15.62-6.99,15.62-15.62v-80.38h80.38c8.63,0,15.62-6.99,15.62-15.62v-26.76c0-8.63-6.99-15.62-15.62-15.62Z"/>
  </g>
  <g>
    <rect class="cls-1" x="1105.02" y="79.9" width="843.19" height="541.48" rx="86.95" ry="86.95"/>
    <path class="cls-2" d="m1635.38,318h-80.38v-80.38c0-8.63-6.99-15.62-15.62-15.62h-26.76c-8.63,0-15.62,6.99-15.62,15.62v80.38h-80.38c-8.63,0-15.62,6.99-15.62,15.62v26.76c0,8.63,6.99,15.62,15.62,15.62h80.38v80.38c0,8.63,6.99,15.62,15.62,15.62h26.76c8.63,0,15.62-6.99,15.62-15.62v-80.38h80.38c8.63,0,15.62-6.99,15.62-15.62v-26.76c0-8.63-6.99-15.62-15.62-15.62Z"/>
  </g>
  <g>
    <rect class="cls-1" x="59.02" y="1384.9" width="843.19" height="541.48" rx="86.95" ry="86.95"/>
    <path class="cls-2" d="m589.38,1623h-80.38v-80.38c0-8.63-6.99-15.62-15.62-15.62h-26.76c-8.63,0-15.62,6.99-15.62,15.62v80.38h-80.38c-8.63,0-15.62,6.99-15.62,15.62v26.76c0,8.63,6.99,15.62,15.62,15.62h80.38v80.38c0,8.63,6.99,15.62,15.62,15.62h26.76c8.63,0,15.62-6.99,15.62-15.62v-80.38h80.38c8.63,0,15.62-6.99,15.62-15.62v-26.76c0-8.63-6.99-15.62-15.62-15.62Z"/>
  </g>
  <g>
    <rect class="cls-1" x="1105.02" y="1384.9" width="843.19" height="541.48" rx="86.95" ry="86.95"/>
    <path class="cls-2" d="m1635.38,1623h-80.38v-80.38c0-8.63-6.99-15.62-15.62-15.62h-26.76c-8.63,0-15.62,6.99-15.62,15.62v80.38h-80.38c-8.63,0-15.62,6.99-15.62,15.62v26.76c0,8.63,6.99,15.62,15.62,15.62h80.38v80.38c0,8.63,6.99,15.62,15.62,15.62h26.76c8.63,0,15.62-6.99,15.62-15.62v-80.38h80.38c8.63,0,15.62-6.99,15.62-15.62v-26.76c0-8.63-6.99-15.62-15.62-15.62Z"/>
  </g>
  <g>
    <path class="cls-3" d="m556.88,1092.96c0-15.04-5.32-26.76-15.97-35.16-10.65-8.4-29.35-17.09-56.1-26.07-26.76-8.98-48.63-17.67-65.62-26.07-55.28-27.15-82.91-64.45-82.91-111.91,0-23.63,6.88-44.48,20.65-62.55,13.77-18.06,33.25-32.13,58.45-42.19,25.2-10.06,53.51-15.09,84.96-15.09s58.15,5.47,82.47,16.41c24.32,10.94,43.21,26.51,56.69,46.73s20.21,43.31,20.21,69.29h-102.54c0-17.38-5.32-30.86-15.97-40.43-10.65-9.57-25.05-14.36-43.21-14.36s-32.86,4.06-43.51,12.16c-10.65,8.11-15.97,18.41-15.97,30.91,0,10.94,5.86,20.85,17.58,29.74,11.72,8.89,32.32,18.07,61.82,27.54,29.49,9.48,53.71,19.68,72.66,30.62,46.09,26.56,69.14,63.19,69.14,109.86,0,37.31-14.06,66.6-42.19,87.89-28.12,21.29-66.7,31.93-115.72,31.93-34.57,0-65.87-6.2-93.9-18.6-28.03-12.4-49.12-29.39-63.28-50.98-14.16-21.58-21.24-46.44-21.24-74.56h103.12c0,22.85,5.91,39.7,17.72,50.54,11.81,10.84,31,16.26,57.57,16.26,16.99,0,30.42-3.66,40.28-10.99,9.86-7.32,14.79-17.62,14.79-30.91Z"/>
    <path class="cls-3" d="m812.06,1206.34h-99.02v-450h99.02v450Z"/>
    <path class="cls-3" d="m860.4,1044.92c0-31.64,6.15-59.81,18.46-84.52,12.3-24.71,29.98-43.7,53.03-56.98,23.04-13.28,50.1-19.92,81.15-19.92,47.46,0,84.86,14.7,112.21,44.09,27.34,29.4,41.02,69.39,41.02,119.97v3.52c0,49.42-13.72,88.62-41.16,117.63-27.44,29-64.6,43.51-111.47,43.51s-81.35-13.52-108.69-40.58c-27.35-27.05-42.09-63.72-44.24-110.01l-.29-16.7Zm98.73,6.15c0,29.3,4.59,50.78,13.77,64.45,9.18,13.67,22.75,20.51,40.72,20.51,35.16,0,53.12-27.05,53.91-81.15v-9.96c0-56.84-18.16-85.25-54.49-85.25-33.01,0-50.88,24.51-53.61,73.54l-.29,17.87Z"/>
    <path class="cls-3" d="m1324.76,810.54v78.81h52.15v68.55h-52.15v145.02c0,11.92,2.15,20.21,6.45,24.9,4.29,4.69,12.79,7.03,25.49,7.03,9.76,0,17.97-.59,24.61-1.76v70.61c-17.78,5.66-36.33,8.5-55.66,8.5-33.98,0-59.08-8.01-75.29-24.02-16.21-16.01-24.32-40.33-24.32-72.95v-157.32h-40.43v-68.55h40.43v-78.81h98.73Z"/>
    <path class="cls-3" d="m1581.69,1117.28c0-8.4-4.39-15.13-13.18-20.21-8.79-5.08-25.49-10.35-50.1-15.82-24.61-5.47-44.92-12.64-60.94-21.53-16.02-8.88-28.23-19.67-36.62-32.37-8.4-12.69-12.6-27.25-12.6-43.65,0-29.1,12.01-53.07,36.04-71.92,24.02-18.85,55.47-28.27,94.34-28.27,41.79,0,75.39,9.48,100.78,28.42,25.39,18.95,38.09,43.85,38.09,74.71h-99.02c0-25.39-13.38-38.09-40.14-38.09-10.35,0-19.04,2.88-26.07,8.64-7.03,5.76-10.55,12.94-10.55,21.53s4.29,15.92,12.89,21.39c8.59,5.47,22.31,9.96,41.16,13.48,18.85,3.52,35.4,7.72,49.66,12.6,47.65,16.41,71.48,45.8,71.48,88.18,0,28.91-12.84,52.44-38.53,70.61-25.69,18.16-58.94,27.25-99.76,27.25-27.15,0-51.37-4.88-72.66-14.65-21.29-9.76-37.89-23.04-49.8-39.84-11.92-16.79-17.87-34.47-17.87-53.03h92.29c.39,14.65,5.27,25.34,14.65,32.08s21.39,10.11,36.04,10.11c13.48,0,23.58-2.73,30.32-8.2,6.74-5.47,10.11-12.6,10.11-21.39Z"/>
  </g>
</svg>