<?xml version="1.0" encoding="UTF-8"?>
<svg id="uuid-eaec3a0b-1c7b-41f0-987b-b3138cdb026d" data-name="Verlassen-nobg" xmlns="http://www.w3.org/2000/svg" viewBox="0 0 2000 2000">
  <circle cx="1144.87" cy="671.68" r="177.7" style="fill: #172d4d;"/>
  <path d="M619.93,1376.36l147.06,102.13-61.28,163.4s-31.4,81.45-89.87,77.62h-261.45s-77.62-12.26-77.62-77.62c0,0-11.49-69.45,65.36-81.7l208.34-8.17,69.45-175.66Z" style="fill: #172d4d;"/>
  <path d="M626.82,1214.49l150.13-284.94-128.68,3.06-101.11,137.87s-36.94,53.77-94.98,27.57c0,0-69.96-38.49-39.83-94.98l153.19-193.02s0-27.57,373.79-27.57c0,0,50.81,6.79,70.47,73.53,0,0,49.02,9.19,85.79,55.15,0,0,55.15,70.47,82.72,171.57h183.83s69.7-.36,73.53,67.4c0,0,12.51,82.62-55.15,82.72h-226.72s-63.83-6.49-82.72-42.89l-45.96-88.85-107.23,174.64s-12.26,21.45,21.45,42.89l144,116.43s24.51,12.26,49.02,94.98l91.91,281.87s24,79.3-18.38,104.17c0,0-91.41,73.68-137.87-21.45l-101.11-309.45-340.09-269.62s-33.7-39.83-6.13-88.85" style="fill: #172d4d;"/>
  <path d="M1185.29,1459.23c-6.98-32.68-22.81-46.98-22.81-46.98l-140.42-119.64h389.11s98.04-6.13,101.11-119.49c0,0,12.26-116.43-110.3-153.19l-168.51-6.13-39.83-82.72c160.85-51.43,195.57-170.4,195.57-170.4,33.45-90.89-9.19-191.49-9.19-191.49-59.23-139.91-192.51-152.83-192.51-152.83,0,0-95.75-27.68-238.98,79.66l-1.53-193.13,249.71.11,487.15-82.72s49.02-6.13,49.02,45.96v1574.81s6.64,45.77-39.83,36.77l-379.91-64.34s-20.94-.36-27.58-32.28l-100.26-321.96Z" style="fill: #363f4d;"/>
  <path d="M1854.29,154.85H145.33v1769.38c-1.94,64.23-68.36,52.77-68.36,52.77-49.67-4.2-52.08-49.67-52.08-49.67L21.64,102.08C18.38,15.16,106.27,24.47,106.27,24.47h1787.08s91.14-3.1,84.63,74.5l-6.51,1825.26s-2.21,47.2-45.57,49.67c0,0-76.81,11.84-74.87-58.98l3.26-1760.07Z" style="fill: #363f4d;"/>
</svg>