<?xml version="1.0" encoding="UTF-8"?>
<svg id="uuid-9e70e426-c57d-414a-a53e-f09fb82f1e8f" data-name="R-Lernpfad" xmlns="http://www.w3.org/2000/svg" viewBox="0 0 2000 2000">
  <path d="M125.1,21.61h762.67v.02c235.06.7,425.39,184.06,425.39,410.17s-190.33,409.47-425.39,410.17v.02h-11.83v.74h-441.55v.02c-163.69.7-296.16,129.03-296.16,287.24s132.47,286.54,296.16,287.24v.02h1530.61v122.93H434.39v-.02c-235.06-.7-425.39-184.06-425.39-410.17s190.33-409.47,425.39-410.17v-.02h11.83v-.74h441.55v-.02c163.69-.7,296.16-129.03,296.16-287.24s-132.47-286.54-296.16-287.24v-.02H125.51V21.61" style="fill: #172d4d;"/>
  <circle cx="1466.07" cy="1467.2" r="454.25" style="fill: #e9f2fa; stroke: #172d4c; stroke-miterlimit: 10; stroke-width: 123px;"/>
  <circle cx="1130.34" cy="201.49" r="143.34" style="fill: #172d4c; stroke: #172d4c; stroke-miterlimit: 10; stroke-width: 86px;"/>
  <circle cx="555.68" cy="789.83" r="143.34" style="fill: #172d4c; stroke: #172d4c; stroke-miterlimit: 10; stroke-width: 86px;"/>
  <circle cx="555.68" cy="1508.83" r="143.34" style="fill: #172d4c; stroke: #172d4c; stroke-miterlimit: 10; stroke-width: 86px;"/>
  <circle cx="1467.29" cy="1472.26" r="224.11" style="fill: #e9f2fa; stroke: #172d4c; stroke-miterlimit: 10; stroke-width: 123px;"/>
  <circle cx="1467.13" cy="1473.37" r="70.13" style="fill: #172d4c;"/>
</svg>