<?xml version="1.0" encoding="UTF-8"?>
<svg id="uuid-b718674a-fec0-4f31-ab02-bd41f95c0c82" data-name="Bleiben-bg" xmlns="http://www.w3.org/2000/svg" viewBox="0 0 2000 2000">
  <path d="M2000.68,82.77c0-44.15-35.84-80-80-80H80.67C36.52,2.77.67,38.61.67,82.77v1840c0,44.15,35.85,80,80,80h1840c44.16,0,80-35.85,80-80V82.77Z" style="fill: #e6e6e6; fill-rule: evenodd;"/>
  <circle cx="1022.31" cy="423.51" r="177.7" style="fill: #172d4d;"/>
  <path d="M1933.63,1965.68h-553.53c-46.72-1.79-44.94-61.28-44.94-61.28-1.02-51.57,40.85-53.11,40.85-53.11h488.17l2.04-1687.15-1723.91-2.04-2.04,1687.15h493.28c54.47,6.47,48,64.34,48,64.34,1.79,55.15-49.02,57.19-49.02,57.19H48.35c-29.87-.51-26.04-52.09-26.04-52.09V109.86C19.06,22.95,106.95,32.26,106.95,32.26h1787.08s91.14-3.1,84.63,74.5v1816.03s1.27,40.85-45.03,42.89Z" style="fill: #363f4d;"/>
  <path d="M1189.88,627.49h-340.09s-147.06,27.57-180.77,177.7l-6.13,416.68s3.06,45.96,52.09,55.15c0,0,49.02,9.19,64.34-55.15l3.06-361.53s12.26-27.57,33.7-3.06v909.96s.77,86.72,79.66,88.85c0,0,92.68,14.21,107.23-61.28v-523.91s14.55-29.19,30.64,0l3.06,508.6s3.32,77.53,82.72,79.66c0,0,96.26,14.21,107.23-61.28v-943.66s16.09-19.49,30.64,3.06l4.34,364s8.77,54.47,55.91,57.45c0,0,53.02,5.87,61.02-57.19l-2.55-432.43s-18.81-118.72-186.13-161.62Z" style="fill: #172d4d;"/>
</svg>