<?xml version="1.0" encoding="UTF-8"?>
<svg id="R-Metadaten" xmlns="http://www.w3.org/2000/svg" viewBox="0 0 2000 2000">
  <defs>
    <style>
      .cls-1 {
        fill: #8abee5;
      }

      .cls-1, .cls-2, .cls-3, .cls-4, .cls-5, .cls-6, .cls-7, .cls-8 {
        stroke: #172d4d;
        stroke-miterlimit: 10;
      }

      .cls-1, .cls-2, .cls-6, .cls-7, .cls-8 {
        stroke-width: 34px;
      }

      .cls-2 {
        fill: #f44336;
      }

      .cls-3, .cls-4 {
        stroke-width: 70px;
      }

      .cls-3, .cls-6 {
        fill: #e6e6e6;
      }

      .cls-4 {
        fill: none;
        stroke-linecap: round;
      }

      .cls-5 {
        fill: #cfd8e5;
        stroke-width: 48px;
      }

      .cls-7 {
        fill: #090;
      }

      .cls-8 {
        fill: #e5b55c;
      }
    </style>
  </defs>
  <rect class="cls-1" x="49.83" y="571.89" width="1904" height="1379.83" rx="137.35" ry="137.35"/>
  <g>
    <rect class="cls-3" x="128.23" y="427.24" width="1735.6" height="1414.48" rx="137.35" ry="137.35"/>
    <g>
      <line class="cls-4" x1="270.21" y1="644" x2="584.45" y2="644"/>
      <line class="cls-4" x1="539.96" y1="980.01" x2="854.21" y2="980.01"/>
      <line class="cls-4" x1="270.21" y1="1519.53" x2="584.45" y2="1519.53"/>
      <line class="cls-4" x1="753.19" y1="644.32" x2="855.94" y2="644.32"/>
      <line class="cls-4" x1="278.04" y1="980.33" x2="380.79" y2="980.33"/>
      <line class="cls-4" x1="270.21" y1="811.53" x2="854.21" y2="811.53"/>
      <line class="cls-4" x1="270.21" y1="1146.6" x2="854.21" y2="1146.6"/>
      <line class="cls-4" x1="270.21" y1="1343.47" x2="482.23" y2="1343.47"/>
      <line class="cls-4" x1="638.4" y1="1343.47" x2="846.64" y2="1343.47"/>
      <line class="cls-4" x1="743.63" y1="1515.42" x2="846.38" y2="1515.42"/>
    </g>
    <g>
      <line class="cls-4" x1="1140.63" y1="641.46" x2="1454.87" y2="641.46"/>
      <line class="cls-4" x1="1410.39" y1="977.47" x2="1724.63" y2="977.47"/>
      <line class="cls-4" x1="1140.63" y1="1516.99" x2="1454.87" y2="1516.99"/>
      <line class="cls-4" x1="1623.61" y1="641.78" x2="1726.36" y2="641.78"/>
      <line class="cls-4" x1="1148.46" y1="977.79" x2="1251.21" y2="977.79"/>
      <line class="cls-4" x1="1140.63" y1="808.99" x2="1724.63" y2="808.99"/>
      <line class="cls-4" x1="1140.63" y1="1144.06" x2="1724.63" y2="1144.06"/>
      <line class="cls-4" x1="1140.63" y1="1340.94" x2="1352.65" y2="1340.94"/>
      <line class="cls-4" x1="1508.82" y1="1340.94" x2="1717.06" y2="1340.94"/>
      <line class="cls-4" x1="1614.05" y1="1512.88" x2="1716.8" y2="1512.88"/>
    </g>
    <path class="cls-5" d="M944.83,1851.72H297.03s-159.43-12-165.2-192c0,0,34.63,69,188.28,69h442.21s114.7,0,182.51,123Z"/>
    <path class="cls-5" d="M1039.14,1850.72h647.8s159.43-12,165.2-192c0,0-34.63,69-188.28,69h-442.21s-114.7,0-182.51,123Z"/>
  </g>
  <g>
    <path class="cls-2" d="M274.83,778.72c0-401.51,325.49-727,727-727s727,325.49,727,727"/>
    <path class="cls-8" d="M467.83,779.22c0-293.54,237.96-531.5,531.5-531.5s531.5,237.96,531.5,531.5"/>
    <path class="cls-7" d="M668.86,779.67c0-182.8,148.19-330.99,330.99-330.99s330.99,148.19,330.99,330.99"/>
    <path class="cls-6" d="M821.78,780.01c0-96.92,78.57-175.49,175.49-175.49s175.49,78.57,175.49,175.49"/>
  </g>
  <line class="cls-3" x1="985.83" y1="1849.72" x2="985.83" y2="619.52"/>
</svg>