<?xml version="1.0" encoding="UTF-8" standalone="no"?>
<!DOCTYPE svg PUBLIC "-//W3C//DTD SVG 1.1//EN" "http://www.w3.org/Graphics/SVG/1.1/DTD/svg11.dtd">
<svg width="100%" height="100%" viewBox="0 0 2000 2000" version="1.1" xmlns="http://www.w3.org/2000/svg" xmlns:xlink="http://www.w3.org/1999/xlink" xml:space="preserve" xmlns:serif="http://www.serif.com/" style="fill-rule:evenodd;clip-rule:evenodd;stroke-linecap:round;stroke-linejoin:round;stroke-miterlimit:1.5;">
    <rect id="url_www_icon" x="0" y="0" width="2000" height="2000" style="fill:none;"/>
    <clipPath id="_clip1">
        <rect id="url_www_icon1" serif:id="url_www_icon" x="0" y="0" width="2000" height="2000"/>
    </clipPath>
    <g clip-path="url(#_clip1)">
        <g transform="matrix(1.10262,0,0,1.121,-143.486,77.7028)">
            <circle cx="1037.06" cy="822.748" r="892.064" style="fill:rgb(22,155,188);"/>
        </g>
        <path d="M1517,689L1343.93,719.5L1228,837L1163,1016.67L1219,1085C1219,1085 1312.44,1161.69 1343.93,1182C1375.43,1202.31 1497,1198 1497,1198L1572,1154L1685,1217C1685,1217 1722.49,1332.33 1680,1367C1637.51,1401.67 1531,1500 1531,1500C1531,1500 1444.77,1613.69 1436,1632C1427.23,1650.31 1407.95,1756.53 1412,1774C1416.05,1791.47 1545,1814 1545,1814L1745,1630L1945,1280.5L1983.61,987L1939,719.5L1781,638L1666,700L1532,689" style="fill:rgb(49,189,44);stroke:rgb(44,189,49);stroke-width:33.33px;"/>
        <path d="M390,820L358,744L312,690L333,579L509,516.667L597,483.333L708,393L762,321L849,288L929,295L931,175L823,148L763,144L645,115L617,96L568.5,121L428,213L333,292L243,380L179,483.333L145.333,556L107,611L219,589L243,638L266,698L333,780L333,855L374,902L400,916L390,820Z" style="fill:rgb(49,189,44);stroke:rgb(44,189,49);stroke-width:33.33px;"/>
        <path d="M1425,562L1406,619L1318,635L1271,577L1367,516.667L1377,483.333L1378,445L1381,379L1370,307L1479,323L1512,297L1534,263C1534,263 1551.13,248.142 1534,243C1516.87,237.858 1503.27,226.523 1473,238C1442.73,249.477 1437,254 1437,254L1396,281L1358,234L1396,202L1440,179L1489,147L1650,267L1713,343L1773,406L1835,483.333L1783,483.333L1705,467L1666,434L1613,439C1613,439 1619.5,448.152 1629,463C1638.5,477.848 1666,500 1666,500L1666,516.667L1693,516.667L1644,542C1644,542 1643.86,550.039 1627,553C1610.14,555.961 1603,534 1603,534L1602,506L1586,483.333L1568,458L1531,483.333L1496,483.333L1493,516.667L1445,554L1425,562Z" style="fill:rgb(49,189,44);stroke:rgb(44,189,49);stroke-width:33.33px;"/>
        <path d="M983,123L1051,169L1101,171L1185,161L1193,134L1194,91L1155,55L1116,33L1022,33L926,31L918,68L983,123Z" style="fill:rgb(49,189,44);stroke:rgb(44,189,49);stroke-width:33.33px;"/>
        <path d="M889,1280.5L703,1135L666,942L333,943L243,1190L497,1516.67L627,1882L894,1516.67L889,1280.5" style="fill:rgb(49,189,44);stroke:rgb(49,189,44);stroke-width:33.33px;"/>
        <path d="M1000,0C448.085,0 -0,448.085 -0,1000C-0,1551.91 448.085,2000 1000,2000C1551.91,2000 2000,1551.91 2000,1000C2000,448.085 1551.91,0 1000,0ZM1000,71.959C1512.2,71.959 1928.04,487.8 1928.04,1000C1928.04,1512.2 1512.2,1928.04 1000,1928.04C487.8,1928.04 71.959,1512.2 71.959,1000C71.959,487.8 487.8,71.959 1000,71.959Z" style="fill:rgb(23,43,77);"/>
        <g transform="matrix(1,0,0,1,-2208,0)">
            <path d="M2787.79,1310.81L2476.98,1000L2239,1237.98L2785.59,1784.57L2787.36,1782.81L2789.13,1784.57L4173.72,399.981L3936.17,162.426L2787.79,1310.81Z" style="fill:rgb(110,233,110);"/>
        </g>
        <g transform="matrix(1,0,0,1,-1.63869,-26.5001)">
            <path d="M581.426,1293.11L292.716,1004.4C280.513,992.199 260.726,992.199 248.522,1004.4C248.522,1004.4 10.542,1242.38 10.542,1242.38C-1.662,1254.59 -1.662,1274.37 10.542,1286.58C10.542,1286.58 557.135,1833.17 557.135,1833.17C563.687,1839.72 572.424,1842.76 581,1842.27C589.576,1842.76 598.313,1839.72 604.865,1833.17C604.865,1833.17 1989.46,448.578 1989.46,448.578C2001.66,436.374 2001.66,416.587 1989.46,404.384C1989.46,404.384 1751.9,166.829 1751.9,166.829C1739.7,154.625 1719.91,154.625 1707.71,166.829L581.426,1293.11ZM76.833,1264.48L270.619,1070.69C341.619,1141.69 559.329,1359.4 559.329,1359.4C571.533,1371.61 591.319,1371.61 603.523,1359.4C603.523,1359.4 1729.81,233.12 1729.81,233.12C1775.08,278.39 1877.9,381.211 1923.17,426.481C1923.17,426.481 581,1768.65 581,1768.65L76.833,1264.48Z"/>
        </g>
    </g>
</svg>
